<svg viewBox="0 0 215 58" version="1.1" xmlns="http://www.w3.org/2000/svg" desc="Created with imagetracer.js version 1.2.6" ><path fill="rgb(61,62,62)" stroke="rgb(61,62,62)" stroke-width="1" opacity="0.8666666666666667" d="M 1.5 30 L 1.5 31 L 1.5 30 Z " /><path fill="rgb(61,62,62)" stroke="rgb(61,62,62)" stroke-width="1" opacity="0.8666666666666667" d="M 3.5 33 L 3.5 34 L 3.5 33 Z " /><path fill="rgb(61,62,62)" stroke="rgb(61,62,62)" stroke-width="1" opacity="0.8666666666666667" d="M 5.5 36 L 5.5 37 L 5.5 36 Z " /><path fill="rgb(61,62,62)" stroke="rgb(61,62,62)" stroke-width="1" opacity="0.8666666666666667" d="M 7.5 39 L 7.5 40 L 7.5 39 Z " /><path fill="rgb(61,62,62)" stroke="rgb(61,62,62)" stroke-width="1" opacity="0.8666666666666667" d="M 9.5 42 L 9.5 43 L 9.5 42 Z " /><path fill="rgb(61,62,62)" stroke="rgb(61,62,62)" stroke-width="1" opacity="0.8666666666666667" d="M 11.5 45 L 11.5 46 L 11.5 45 Z " /><path fill="rgb(61,62,62)" stroke="rgb(61,62,62)" stroke-width="1" opacity="0.8666666666666667" d="M 14.5 49 L 14.5 50 L 14.5 49 Z " /><path fill="rgb(0,0,0)" stroke="rgb(0,0,0)" stroke-width="1" opacity="0" d="M 0 0 L 116 0.5 L 111 3.5 L 110 7 L 14.5 7 L 13 8.5 L 0.5 28 L 0 0 Z " /><path fill="rgb(0,0,0)" stroke="rgb(0,0,0)" stroke-width="1" opacity="0" d="M 200.5 0 L 215 0 L 215 7 L 205.5 7 L 205 4.5 L 200.5 0 Z " /><path fill="rgb(0,0,0)" stroke="rgb(0,0,0)" stroke-width="1" opacity="0" d="M 0.5 30 L 14.5 51 L 109.5 51 L 110 52.5 L 113.5 57 L 115 57.5 L 0 58 L 0.5 30 Z " /><path fill="rgb(0,0,0)" stroke="rgb(0,0,0)" stroke-width="1" opacity="0" d="M 205 51 L 215 51 L 215 58 L 201 57.5 L 204 55.5 L 205 51 Z " /><path fill="rgb(218,217,206)" stroke="rgb(218,217,206)" stroke-width="1" opacity="0.9882352941176471" d="M 125 24 Q 127.67 22.88 127 25.5 L 129.5 29 L 133.5 24 L 135 24.5 L 135 33 Q 131.33 34.35 133 28.5 L 132 28.5 L 129.5 32 L 127.5 29 L 127 33 L 125 32.5 L 125 24 Z " /><path fill="rgb(218,217,206)" stroke="rgb(218,217,206)" stroke-width="1" opacity="0.9882352941176471" d="M 139 24 L 141 24.5 L 141 33 L 139 32.5 L 139 24 Z " /><path fill="rgb(218,217,206)" stroke="rgb(218,217,206)" stroke-width="1" opacity="0.9882352941176471" d="M 146 24 L 151.5 28 L 152 24 L 154 24.5 L 154 33 L 151 31.5 L 148.5 28 L 148 33 L 146 32.5 L 146 24 Z " /><path fill="rgb(218,217,206)" stroke="rgb(218,217,206)" stroke-width="1" opacity="0.9882352941176471" d="M 159 24 L 161 24.5 L 161 31 L 163.5 31 Q 166.5 29.37 165 24 Q 168.5 22.87 167 30.5 Q 166.25 33.75 161.5 33 Q 157.25 31.07 159 24 Z " /><path fill="rgb(218,217,206)" stroke="rgb(218,217,206)" stroke-width="1" opacity="0.9882352941176471" d="M 170.5 24 L 177.5 24 L 178 26 L 175 26 L 175 32.5 L 173 33 L 173 26.5 L 171.5 26 L 170.5 24 Z " /><path fill="rgb(218,217,206)" stroke="rgb(218,217,206)" stroke-width="1" opacity="0.9882352941176471" d="M 181 24 L 184 25.5 Q 183.33 28.13 186 27 L 187.5 24 L 189 24.5 Q 185.25 27.25 186 33 Q 182.67 34.31 184 29.5 L 181 24 Z " /><path fill="rgb(218,217,206)" stroke="rgb(218,217,206)" stroke-width="1" opacity="0.9882352941176471" d="M 23 36 Q 27.69 35 29 38.5 L 28 42.5 L 28.5 44 L 24 42 L 23.5 44 L 23 36 Z M 24 38 Q 23 41 27 40 Q 28 37 24 38 Z " /><path fill="rgb(218,217,206)" stroke="rgb(218,217,206)" stroke-width="1" opacity="0.9882352941176471" d="M 32 36 L 37 36 L 37 38 L 33 38.5 L 37 39.5 L 33 41.5 L 37 42 L 37 44 L 32 44 L 32 36 Z " /><path fill="rgb(218,217,206)" stroke="rgb(218,217,206)" stroke-width="1" opacity="0.9882352941176471" d="M 42.5 36 L 46 37.5 L 41 39.5 L 42.5 42 L 46 42.5 L 42.5 44 L 40 43 L 39 39.5 L 40 37 L 42.5 36 Z " /><path fill="rgb(218,217,206)" stroke="rgb(218,217,206)" stroke-width="1" opacity="0.9882352941176471" d="M 48 36 Q 50.67 34.88 50 37.5 L 51.5 39 L 55 36.5 L 51.5 44 L 48 36 Z " /><path fill="rgb(218,217,206)" stroke="rgb(218,217,206)" stroke-width="1" opacity="0.9882352941176471" d="M 57 36 Q 60 34.75 59 38.5 L 63 36.5 L 61 39.5 L 64 43.5 L 62.5 44 L 59 41.5 Q 60 45.25 57 44 L 57 36 Z " /><path fill="rgb(218,217,206)" stroke="rgb(218,217,206)" stroke-width="1" opacity="0.9882352941176471" d="M 66 36 L 68 36 L 68 42 Q 72.13 40.67 71 44 L 66 44 L 66 36 Z " /><path fill="rgb(218,217,206)" stroke="rgb(218,217,206)" stroke-width="1" opacity="0.9882352941176471" d="M 76 36 Q 78.67 34.88 78 37.5 L 81 44 Q 78 45 79 42 L 75 42 Q 76 45 73 44 L 76 36 Z M 76 39 Q 75 42 78 41 Q 79 38 76 39 Z " /><path fill="rgb(218,217,206)" stroke="rgb(218,217,206)" stroke-width="1" opacity="0.9882352941176471" d="M 85.5 36 L 89 37.5 L 85 38 L 84 40.5 Q 85.4 43.1 90 42.5 L 85.5 44 Q 82.25 43.25 83 38.5 L 85.5 36 Z " /><path fill="rgb(218,217,206)" stroke="rgb(218,217,206)" stroke-width="1" opacity="0.9882352941176471" d="M 92 36 Q 96.6 34.75 98 37.5 L 94 38.5 L 97 39 Q 98.25 42 94.5 41 L 94.5 42 Q 99.31 40.67 98 44 L 92 44 L 92 36 Z " /><path fill="rgb(247,224,33)" stroke="rgb(247,224,33)" stroke-width="1" opacity="0.9098039215686274" d="M 116.5 0 L 199.5 0 L 205 4.5 L 205.5 7 L 215 7 L 215 29 L 205.5 29 L 204.5 30 L 205.5 28 L 214 28 L 214 8 L 204.5 8 L 204 6.5 L 204 4.5 L 201.5 2 L 199.5 1 L 116.5 1 L 113 3.5 Q 113.67 6.13 111 5 L 110.5 8 L 15.5 8 L 2 27.5 L 110.5 28 L 112 29.5 L 110.5 30 L 109.5 29 L 0 28.5 L 14.5 7 L 109.5 7 L 110 5.5 L 113.5 1 L 116.5 0 Z " /><path fill="rgb(247,224,33)" stroke="rgb(247,224,33)" stroke-width="1" opacity="0.9098039215686274" d="M 46.5 17 L 46.5 18 L 46.5 17 Z " /><path fill="rgb(247,224,33)" stroke="rgb(247,224,33)" stroke-width="1" opacity="0.9098039215686274" d="M 61.5 17 L 61.5 18 L 61.5 17 Z " /><path fill="rgb(247,224,33)" stroke="rgb(247,224,33)" stroke-width="1" opacity="0.9098039215686274" d="M 57.5 22 L 57.5 23 L 57.5 22 Z " /><path fill="rgb(247,224,33)" stroke="rgb(247,224,33)" stroke-width="1" opacity="0.9098039215686274" d="M 83.5 22 L 83.5 23 L 83.5 22 Z " /><path fill="rgb(247,224,33)" stroke="rgb(247,224,33)" stroke-width="1" opacity="0.9098039215686274" d="M 204.5 50 L 205 53.5 L 202.5 57 L 200.5 58 L 115.5 58 L 111 54.5 L 110 51 L 112 51.5 L 112 53.5 L 113.5 56 L 115.5 57 L 117.5 56 L 118.5 57 L 197.5 57 L 199.5 57 L 204 53.5 L 204 51.5 L 204.5 50 Z " /><path fill="rgb(252,227,18)" stroke="rgb(252,227,18)" stroke-width="1" opacity="1" d="M 116.5 1 L 200 1.5 L 116.5 2 L 116.5 1 Z " /><path fill="rgb(252,227,18)" stroke="rgb(252,227,18)" stroke-width="1" opacity="1" d="M 114.5 2 L 114.5 3 L 114.5 2 Z " /><path fill="rgb(252,227,18)" stroke="rgb(252,227,18)" stroke-width="1" opacity="1" d="M 201.5 2 L 203.5 5 L 201.5 2 Z " /><path fill="rgb(252,227,18)" stroke="rgb(252,227,18)" stroke-width="1" opacity="1" d="M 111.5 5 L 112 28.5 L 110.5 28 L 2 27.5 L 15.5 8 L 110.5 8 L 111.5 5 Z M 22 15 L 22 23 L 29 22 L 30 22 L 30 16 L 22 15 Z M 34 15 L 34 23 L 40 23 Q 41 20 37 21 L 37 20 Q 40 21 39 18 L 36 18 L 40 17 L 40 15 L 34 15 Z M 43 15 L 43 23 Q 46 24 45 21 L 48 22 Q 50 23 49 21 L 50 21 Q 49 24 52 23 L 52 16 L 50 15 L 48 19 L 47 18 L 43 15 Z M 58 15 L 55 19 L 56 22 Q 57 24 62 23 Q 65 22 64 18 Q 63 14 58 15 Z M 67 15 L 67 23 L 73 23 Q 74 19 69 21 L 69 15 L 67 15 Z M 76 15 L 76 23 L 78 23 L 78 16 L 76 15 Z M 84 15 Q 81 16 82 22 Q 83 24 88 23 L 89 21 Q 82 23 84 17 L 89 17 Q 88 14 84 15 Z M 92 15 L 92 23 L 98 23 Q 99 20 95 21 L 95 20 Q 99 21 98 18 L 94 18 L 98 17 L 98 15 L 92 15 Z " /><path fill="rgb(252,227,18)" stroke="rgb(252,227,18)" stroke-width="1" opacity="1" d="M 204 8 L 214 8 L 214 28 L 205.5 28 L 204.5 29 L 204 8 Z " /><path fill="rgb(252,227,18)" stroke="rgb(252,227,18)" stroke-width="1" opacity="1" d="M 25 17 Q 29.88 15.4 28 21 Q 23.13 22.6 25 17 Z " /><path fill="rgb(252,227,18)" stroke="rgb(252,227,18)" stroke-width="1" opacity="1" d="M 58 17 L 62 18.5 L 60.5 21 Q 55.92 22.2 58 17 Z " /><path fill="rgb(252,227,18)" stroke="rgb(252,227,18)" stroke-width="1" opacity="1" d="M 111.5 30 L 112 50.5 L 111 50.5 L 111.5 30 Z " /><path fill="rgb(252,227,18)" stroke="rgb(252,227,18)" stroke-width="1" opacity="1" d="M 204.5 30 L 205 49.5 L 204 49.5 L 204.5 30 Z " /><path fill="rgb(252,227,18)" stroke="rgb(252,227,18)" stroke-width="1" opacity="1" d="M 111.5 52 L 111.5 53 L 111.5 52 Z " /><path fill="rgb(252,227,18)" stroke="rgb(252,227,18)" stroke-width="1" opacity="1" d="M 203.5 53 L 200.5 57 L 199 56.5 L 203.5 53 Z " /><path fill="rgb(252,227,18)" stroke="rgb(252,227,18)" stroke-width="1" opacity="1" d="M 112.5 54 L 113.5 56 L 112.5 54 Z " /><path fill="rgb(252,227,18)" stroke="rgb(252,227,18)" stroke-width="1" opacity="1" d="M 115.5 56 L 115.5 57 L 115.5 56 Z " /><path fill="rgb(61,62,62)" stroke="rgb(61,62,62)" stroke-width="1" opacity="1" d="M 116.5 2 L 199.5 2 L 203 5.5 L 203 53.5 L 201.5 55 L 199.5 56 L 115.5 56 L 112 52.5 L 112 5.5 L 116.5 2 Z M 124 24 L 124 33 Q 128 35 127 31 L 130 32 Q 132 33 131 31 L 132 31 Q 131 35 135 33 L 135 24 L 132 24 L 131 27 Q 132 29 130 28 L 128 26 L 124 24 Z M 139 24 L 139 33 L 142 33 L 142 24 L 139 24 Z M 146 24 L 146 33 L 149 33 L 150 30 Q 151 34 155 33 L 155 24 L 152 24 L 152 28 L 150 26 L 146 24 Z M 159 24 L 159 32 L 161 33 Q 166 34 167 32 L 167 25 L 165 24 L 164 31 L 161 30 Q 163 23 159 24 Z M 170 24 Q 169 27 173 26 L 173 33 L 176 33 L 176 26 L 179 25 L 170 24 Z M 181 24 L 183 29 Q 181 35 186 33 L 186 30 L 189 24 L 186 26 L 181 24 Z " /><path fill="rgb(61,62,62)" stroke="rgb(61,62,62)" stroke-width="1" opacity="1" d="M 23 15 Q 27.96 14.17 30 17.5 Q 30.75 21.25 28.5 22 L 23 23 L 23 15 Z M 26 16 Q 23 17 24 21 L 27 22 L 29 19 L 26 16 Z " /><path fill="rgb(61,62,62)" stroke="rgb(61,62,62)" stroke-width="1" opacity="1" d="M 34 15 L 39 15.5 L 35 17.5 L 39 18.5 L 35 20.5 L 39 22.5 L 34 23 L 34 15 Z " /><path fill="rgb(61,62,62)" stroke="rgb(61,62,62)" stroke-width="1" opacity="1" d="M 44.5 15 L 47.5 20 L 51.5 15 L 52 22.5 L 51 22.5 Q 52.33 17.69 49 19 L 47.5 22 L 45.5 19 L 44.5 23 L 44.5 15 Z " /><path fill="rgb(61,62,62)" stroke="rgb(61,62,62)" stroke-width="1" opacity="1" d="M 58.5 15 L 63 16 L 64 19.5 L 63 22 L 58.5 23 Q 55.25 22.25 56 17.5 L 58.5 15 Z M 60 16 L 57 20 L 61 22 Q 63 21 62 18 L 60 16 Z " /><path fill="rgb(61,62,62)" stroke="rgb(61,62,62)" stroke-width="1" opacity="1" d="M 68.5 15 Q 67.63 20.38 70.5 22 L 73 22.5 L 68 23 L 68.5 15 Z " /><path fill="rgb(61,62,62)" stroke="rgb(61,62,62)" stroke-width="1" opacity="1" d="M 77.5 15 L 78 22.5 L 77 22.5 L 77.5 15 Z " /><path fill="rgb(61,62,62)" stroke="rgb(61,62,62)" stroke-width="1" opacity="1" d="M 84.5 15 L 88 16.5 L 86.5 16 L 83 18.5 L 85.5 22 L 88.5 21 L 88.5 22 L 84.5 23 Q 81.25 22.25 82 17.5 L 84.5 15 Z " /><path fill="rgb(61,62,62)" stroke="rgb(61,62,62)" stroke-width="1" opacity="1" d="M 93 15 L 98 15.5 L 94 16 Q 92.75 19 96.5 18 L 96.5 19 Q 92.33 17.88 94 22 L 98 22.5 L 93 23 L 93 15 Z " /><path fill="rgb(61,62,62)" stroke="rgb(61,62,62)" stroke-width="1" opacity="1" d="M 2 30 L 109.5 30 L 110 30.5 L 110 50 L 15.5 50 L 12 46.5 L 2 30 Z M 22 36 L 22 44 L 25 44 L 26 42 L 29 44 L 28 42 L 29 38 Q 27 35 22 36 Z M 31 36 L 31 44 L 38 44 Q 39 41 35 42 L 35 41 Q 38 42 37 39 L 34 39 L 37 38 L 37 36 L 31 36 Z M 42 36 Q 38 37 39 42 Q 40 45 46 44 Q 49 43 46 41 L 42 42 Q 40 37 45 38 Q 46 40 47 38 Q 46 35 42 36 Z M 48 36 L 50 41 Q 49 46 53 44 Q 52 40 55 38 Q 56 35 54 36 L 52 39 L 51 38 L 48 36 Z M 57 36 L 57 44 Q 60 45 59 42 L 64 44 L 62 41 L 64 37 L 62 36 L 60 39 L 59 39 Q 60 35 57 36 Z M 66 36 L 66 44 L 72 44 Q 73 40 68 42 L 68 36 L 66 36 Z M 77 36 L 73 44 L 76 43 L 81 44 L 79 38 L 77 36 Z M 85 36 L 82 40 L 83 43 Q 84 45 89 44 Q 92 43 89 41 L 85 42 Q 83 37 88 38 Q 89 40 90 38 Q 89 35 85 36 Z M 92 36 L 92 44 L 98 44 Q 99 41 95 42 L 95 41 Q 99 42 98 39 L 94 39 L 98 38 L 98 36 L 92 36 Z " /><path fill="rgb(61,62,62)" stroke="rgb(61,62,62)" stroke-width="1" opacity="1" d="M 205 30 L 214 30 L 214 50 L 205 50 L 205 30 Z " /><path fill="rgb(61,62,62)" stroke="rgb(61,62,62)" stroke-width="1" opacity="1" d="M 25 38 Q 28 37 27 40 Q 24 41 25 38 Z " /><path fill="rgb(131,127,90)" stroke="rgb(131,127,90)" stroke-width="1" opacity="0.996078431372549" d="M 115.5 2 L 115.5 3 L 115.5 2 Z " /><path fill="rgb(131,127,90)" stroke="rgb(131,127,90)" stroke-width="1" opacity="0.996078431372549" d="M 200.5 2 L 202.5 5 L 200.5 2 Z " /><path fill="rgb(131,127,90)" stroke="rgb(131,127,90)" stroke-width="1" opacity="0.996078431372549" d="M 113.5 3 L 113.5 4 L 113.5 3 Z " /><path fill="rgb(131,127,90)" stroke="rgb(131,127,90)" stroke-width="1" opacity="0.996078431372549" d="M 203.5 6 L 204 51.5 L 203 51.5 L 203.5 6 Z " /><path fill="rgb(131,127,90)" stroke="rgb(131,127,90)" stroke-width="1" opacity="0.996078431372549" d="M 22.5 15 L 23 22.5 L 22 22.5 L 22.5 15 Z " /><path fill="rgb(131,127,90)" stroke="rgb(131,127,90)" stroke-width="1" opacity="0.996078431372549" d="M 27.5 15 L 26.5 17 L 25 17 L 25 21 L 28 22.5 L 26.5 22 L 24 20.5 Q 23.25 16.75 25.5 16 L 27.5 15 Z " /><path fill="rgb(131,127,90)" stroke="rgb(131,127,90)" stroke-width="1" opacity="0.996078431372549" d="M 39.5 15 L 40 17 L 35.5 18 L 36.5 16 L 39.5 15 Z " /><path fill="rgb(131,127,90)" stroke="rgb(131,127,90)" stroke-width="1" opacity="0.996078431372549" d="M 43.5 15 L 44 22.5 L 43 22.5 L 43.5 15 Z " /><path fill="rgb(131,127,90)" stroke="rgb(131,127,90)" stroke-width="1" opacity="0.996078431372549" d="M 50.5 15 L 50.5 16 L 50.5 15 Z " /><path fill="rgb(131,127,90)" stroke="rgb(131,127,90)" stroke-width="1" opacity="0.996078431372549" d="M 57.5 15 L 56.5 17 L 57.5 15 Z " /><path fill="rgb(131,127,90)" stroke="rgb(131,127,90)" stroke-width="1" opacity="0.996078431372549" d="M 61.5 15 L 60.5 17 L 59 16.5 L 61.5 15 Z " /><path fill="rgb(131,127,90)" stroke="rgb(131,127,90)" stroke-width="1" opacity="0.996078431372549" d="M 67.5 15 L 68 22.5 L 67 22.5 L 67.5 15 Z " /><path fill="rgb(131,127,90)" stroke="rgb(131,127,90)" stroke-width="1" opacity="0.996078431372549" d="M 76.5 15 L 77 22.5 L 76 22.5 L 76.5 15 Z " /><path fill="rgb(131,127,90)" stroke="rgb(131,127,90)" stroke-width="1" opacity="0.996078431372549" d="M 83.5 15 L 82.5 17 L 83.5 15 Z " /><path fill="rgb(131,127,90)" stroke="rgb(131,127,90)" stroke-width="1" opacity="0.996078431372549" d="M 87.5 15 L 88.5 17 L 86.5 17 L 85 16.5 L 87.5 15 Z " /><path fill="rgb(131,127,90)" stroke="rgb(131,127,90)" stroke-width="1" opacity="0.996078431372549" d="M 92.5 15 L 93 22.5 L 92 22.5 L 92.5 15 Z " /><path fill="rgb(131,127,90)" stroke="rgb(131,127,90)" stroke-width="1" opacity="0.996078431372549" d="M 29.5 16 L 29.5 17 L 29.5 16 Z " /><path fill="rgb(131,127,90)" stroke="rgb(131,127,90)" stroke-width="1" opacity="0.996078431372549" d="M 45.5 16 L 45.5 17 L 45.5 16 Z " /><path fill="rgb(131,127,90)" stroke="rgb(131,127,90)" stroke-width="1" opacity="0.996078431372549" d="M 94.5 16 L 98 16.5 L 94.5 17 L 94.5 16 Z " /><path fill="rgb(131,127,90)" stroke="rgb(131,127,90)" stroke-width="1" opacity="0.996078431372549" d="M 63.5 17 L 63.5 18 L 63.5 17 Z " /><path fill="rgb(131,127,90)" stroke="rgb(131,127,90)" stroke-width="1" opacity="0.996078431372549" d="M 28.5 18 L 29 19.5 L 28 19.5 L 28.5 18 Z " /><path fill="rgb(131,127,90)" stroke="rgb(131,127,90)" stroke-width="1" opacity="0.996078431372549" d="M 48.5 18 L 51 19 L 50.5 23 L 48.5 19 Q 46.75 22.75 45 19.5 Q 46.75 21.08 48.5 18 Z " /><path fill="rgb(131,127,90)" stroke="rgb(131,127,90)" stroke-width="1" opacity="0.996078431372549" d="M 55.5 18 L 56 19.5 L 55 19.5 L 55.5 18 Z " /><path fill="rgb(131,127,90)" stroke="rgb(131,127,90)" stroke-width="1" opacity="0.996078431372549" d="M 57.5 18 L 58 19.5 L 57 19.5 L 57.5 18 Z " /><path fill="rgb(131,127,90)" stroke="rgb(131,127,90)" stroke-width="1" opacity="0.996078431372549" d="M 83.5 18 L 84 19.5 L 83 19.5 L 83.5 18 Z " /><path fill="rgb(131,127,90)" stroke="rgb(131,127,90)" stroke-width="1" opacity="0.996078431372549" d="M 97.5 18 L 98 20 L 94 19.5 L 97.5 18 Z " /><path fill="rgb(131,127,90)" stroke="rgb(131,127,90)" stroke-width="1" opacity="0.996078431372549" d="M 36.5 19 L 39 19.5 L 36 20.5 L 40 21 L 39.5 23 L 35 20.5 L 36.5 19 Z " /><path fill="rgb(131,127,90)" stroke="rgb(131,127,90)" stroke-width="1" opacity="0.996078431372549" d="M 61.5 20 L 61.5 23 L 59 21.5 L 61.5 20 Z " /><path fill="rgb(131,127,90)" stroke="rgb(131,127,90)" stroke-width="1" opacity="0.996078431372549" d="M 63.5 20 L 63.5 21 L 63.5 20 Z " /><path fill="rgb(131,127,90)" stroke="rgb(131,127,90)" stroke-width="1" opacity="0.996078431372549" d="M 29.5 21 L 29.5 22 L 29.5 21 Z " /><path fill="rgb(131,127,90)" stroke="rgb(131,127,90)" stroke-width="1" opacity="0.996078431372549" d="M 48.5 21 L 48.5 22 L 48.5 21 Z " /><path fill="rgb(131,127,90)" stroke="rgb(131,127,90)" stroke-width="1" opacity="0.996078431372549" d="M 56.5 21 L 56.5 22 L 56.5 21 Z " /><path fill="rgb(131,127,90)" stroke="rgb(131,127,90)" stroke-width="1" opacity="0.996078431372549" d="M 70.5 21 L 73 21.5 L 70.5 22 L 70.5 21 Z " /><path fill="rgb(131,127,90)" stroke="rgb(131,127,90)" stroke-width="1" opacity="0.996078431372549" d="M 82.5 21 L 82.5 22 L 82.5 21 Z " /><path fill="rgb(131,127,90)" stroke="rgb(131,127,90)" stroke-width="1" opacity="0.996078431372549" d="M 85.5 21 L 88 22.5 L 86.5 22 L 85.5 21 Z " /><path fill="rgb(131,127,90)" stroke="rgb(131,127,90)" stroke-width="1" opacity="0.996078431372549" d="M 94.5 21 L 98 21.5 L 94.5 22 L 94.5 21 Z " /><path fill="rgb(131,127,90)" stroke="rgb(131,127,90)" stroke-width="1" opacity="0.996078431372549" d="M 124.5 24 L 125 32.5 L 124 32.5 L 124.5 24 Z " /><path fill="rgb(131,127,90)" stroke="rgb(131,127,90)" stroke-width="1" opacity="0.996078431372549" d="M 132.5 24 L 132.5 25 L 132.5 24 Z " /><path fill="rgb(131,127,90)" stroke="rgb(131,127,90)" stroke-width="1" opacity="0.996078431372549" d="M 141.5 24 L 142 32.5 L 141 32.5 L 141.5 24 Z " /><path fill="rgb(131,127,90)" stroke="rgb(131,127,90)" stroke-width="1" opacity="0.996078431372549" d="M 148.5 24 L 149.5 26 L 148.5 24 Z " /><path fill="rgb(131,127,90)" stroke="rgb(131,127,90)" stroke-width="1" opacity="0.996078431372549" d="M 154.5 24 L 155 32.5 L 154 32.5 L 154.5 24 Z " /><path fill="rgb(131,127,90)" stroke="rgb(131,127,90)" stroke-width="1" opacity="0.996078431372549" d="M 178.5 24 L 178.5 25 L 178.5 24 Z " /><path fill="rgb(131,127,90)" stroke="rgb(131,127,90)" stroke-width="1" opacity="0.996078431372549" d="M 180.5 24 L 180.5 25 L 180.5 24 Z " /><path fill="rgb(131,127,90)" stroke="rgb(131,127,90)" stroke-width="1" opacity="0.996078431372549" d="M 127.5 25 L 127.5 26 L 127.5 25 Z " /><path fill="rgb(131,127,90)" stroke="rgb(131,127,90)" stroke-width="1" opacity="0.996078431372549" d="M 170.5 25 L 170.5 26 L 170.5 25 Z " /><path fill="rgb(131,127,90)" stroke="rgb(131,127,90)" stroke-width="1" opacity="0.996078431372549" d="M 188.5 25 L 188.5 26 L 188.5 25 Z " /><path fill="rgb(131,127,90)" stroke="rgb(131,127,90)" stroke-width="1" opacity="0.996078431372549" d="M 131.5 26 L 131.5 27 L 131.5 26 Z " /><path fill="rgb(131,127,90)" stroke="rgb(131,127,90)" stroke-width="1" opacity="0.996078431372549" d="M 175.5 26 L 176 32.5 L 175 32.5 L 175.5 26 Z " /><path fill="rgb(131,127,90)" stroke="rgb(131,127,90)" stroke-width="1" opacity="0.996078431372549" d="M 184.5 26 L 186 26.5 L 184.5 27 L 184.5 26 Z " /><path fill="rgb(131,127,90)" stroke="rgb(131,127,90)" stroke-width="1" opacity="0.996078431372549" d="M 182.5 27 L 182.5 28 L 182.5 27 Z " /><path fill="rgb(131,127,90)" stroke="rgb(131,127,90)" stroke-width="1" opacity="0.996078431372549" d="M 187.5 27 L 187.5 28 L 187.5 27 Z " /><path fill="rgb(131,127,90)" stroke="rgb(131,127,90)" stroke-width="1" opacity="0.996078431372549" d="M 129.5 28 L 129.5 29 L 129.5 28 Z " /><path fill="rgb(131,127,90)" stroke="rgb(131,127,90)" stroke-width="1" opacity="0.996078431372549" d="M 132.5 28 L 133 32.5 L 132 32.5 L 132.5 28 Z " /><path fill="rgb(131,127,90)" stroke="rgb(131,127,90)" stroke-width="1" opacity="0.996078431372549" d="M 148.5 28 L 150.5 31 L 149 30.5 L 148.5 33 L 148.5 28 Z " /><path fill="rgb(131,127,90)" stroke="rgb(131,127,90)" stroke-width="1" opacity="0.996078431372549" d="M 127.5 29 L 127.5 30 L 127.5 29 Z " /><path fill="rgb(131,127,90)" stroke="rgb(131,127,90)" stroke-width="1" opacity="0.996078431372549" d="M 164.5 29 L 164.5 30 L 164.5 29 Z " /><path fill="rgb(131,127,90)" stroke="rgb(131,127,90)" stroke-width="1" opacity="0.996078431372549" d="M 183.5 29 L 184 32.5 L 183 32.5 L 183.5 29 Z " /><path fill="rgb(131,127,90)" stroke="rgb(131,127,90)" stroke-width="1" opacity="0.996078431372549" d="M 110.5 30 L 111 50.5 L 110 50.5 L 110.5 30 Z " /><path fill="rgb(131,127,90)" stroke="rgb(131,127,90)" stroke-width="1" opacity="0.996078431372549" d="M 161.5 30 L 161.5 31 L 161.5 30 Z " /><path fill="rgb(131,127,90)" stroke="rgb(131,127,90)" stroke-width="1" opacity="0.996078431372549" d="M 130.5 31 L 130.5 32 L 130.5 31 Z " /><path fill="rgb(131,127,90)" stroke="rgb(131,127,90)" stroke-width="1" opacity="0.996078431372549" d="M 159.5 31 L 160.5 33 L 159.5 31 Z " /><path fill="rgb(131,127,90)" stroke="rgb(131,127,90)" stroke-width="1" opacity="0.996078431372549" d="M 166.5 31 L 165.5 33 L 166.5 31 Z " /><path fill="rgb(131,127,90)" stroke="rgb(131,127,90)" stroke-width="1" opacity="0.996078431372549" d="M 22.5 36 L 23 43.5 L 22 43.5 L 22.5 36 Z " /><path fill="rgb(131,127,90)" stroke="rgb(131,127,90)" stroke-width="1" opacity="0.996078431372549" d="M 27.5 36 L 28.5 38 L 27.5 36 Z " /><path fill="rgb(131,127,90)" stroke="rgb(131,127,90)" stroke-width="1" opacity="0.996078431372549" d="M 31.5 36 L 32 43.5 L 31 43.5 L 31.5 36 Z " /><path fill="rgb(131,127,90)" stroke="rgb(131,127,90)" stroke-width="1" opacity="0.996078431372549" d="M 41.5 36 L 41.5 37 L 41.5 36 Z " /><path fill="rgb(131,127,90)" stroke="rgb(131,127,90)" stroke-width="1" opacity="0.996078431372549" d="M 45.5 36 Q 48.5 37.5 45.5 39 L 45.5 36 Z " /><path fill="rgb(131,127,90)" stroke="rgb(131,127,90)" stroke-width="1" opacity="0.996078431372549" d="M 53.5 36 L 52.5 38 L 53.5 36 Z " /><path fill="rgb(131,127,90)" stroke="rgb(131,127,90)" stroke-width="1" opacity="0.996078431372549" d="M 61.5 36 L 60.5 38 L 61.5 36 Z " /><path fill="rgb(131,127,90)" stroke="rgb(131,127,90)" stroke-width="1" opacity="0.996078431372549" d="M 63.5 36 L 63.5 37 L 63.5 36 Z " /><path fill="rgb(131,127,90)" stroke="rgb(131,127,90)" stroke-width="1" opacity="0.996078431372549" d="M 84.5 36 L 83.5 38 L 84.5 36 Z " /><path fill="rgb(131,127,90)" stroke="rgb(131,127,90)" stroke-width="1" opacity="0.996078431372549" d="M 88.5 36 Q 91.5 37.5 88.5 39 L 88.5 36 Z " /><path fill="rgb(131,127,90)" stroke="rgb(131,127,90)" stroke-width="1" opacity="0.996078431372549" d="M 97.5 36 L 97.5 37 L 97.5 36 Z " /><path fill="rgb(131,127,90)" stroke="rgb(131,127,90)" stroke-width="1" opacity="0.996078431372549" d="M 50.5 37 L 50.5 38 L 50.5 37 Z " /><path fill="rgb(131,127,90)" stroke="rgb(131,127,90)" stroke-width="1" opacity="0.996078431372549" d="M 75.5 37 L 75.5 38 L 75.5 37 Z " /><path fill="rgb(131,127,90)" stroke="rgb(131,127,90)" stroke-width="1" opacity="0.996078431372549" d="M 78.5 37 L 78.5 38 L 78.5 37 Z " /><path fill="rgb(131,127,90)" stroke="rgb(131,127,90)" stroke-width="1" opacity="0.996078431372549" d="M 24.5 38 L 25 39.5 L 24 39.5 L 24.5 38 Z " /><path fill="rgb(131,127,90)" stroke="rgb(131,127,90)" stroke-width="1" opacity="0.996078431372549" d="M 33.5 38 L 33.5 39 L 33.5 38 Z " /><path fill="rgb(131,127,90)" stroke="rgb(131,127,90)" stroke-width="1" opacity="0.996078431372549" d="M 39.5 38 L 39.5 39 L 39.5 38 Z " /><path fill="rgb(131,127,90)" stroke="rgb(131,127,90)" stroke-width="1" opacity="0.996078431372549" d="M 41.5 39 L 42 40.5 L 41 40.5 L 41.5 39 Z " /><path fill="rgb(131,127,90)" stroke="rgb(131,127,90)" stroke-width="1" opacity="0.996078431372549" d="M 49.5 39 L 49.5 40 L 49.5 39 Z " /><path fill="rgb(131,127,90)" stroke="rgb(131,127,90)" stroke-width="1" opacity="0.996078431372549" d="M 53.5 39 L 53.5 40 L 53.5 39 Z " /><path fill="rgb(131,127,90)" stroke="rgb(131,127,90)" stroke-width="1" opacity="0.996078431372549" d="M 61.5 39 L 61.5 40 L 61.5 39 Z " /><path fill="rgb(131,127,90)" stroke="rgb(131,127,90)" stroke-width="1" opacity="0.996078431372549" d="M 74.5 39 L 74.5 40 L 74.5 39 Z " /><path fill="rgb(131,127,90)" stroke="rgb(131,127,90)" stroke-width="1" opacity="0.996078431372549" d="M 76 39 Q 79 38 78 41 Q 75 42 76 39 Z " /><path fill="rgb(131,127,90)" stroke="rgb(131,127,90)" stroke-width="1" opacity="0.996078431372549" d="M 79.5 39 L 79.5 40 L 79.5 39 Z " /><path fill="rgb(131,127,90)" stroke="rgb(131,127,90)" stroke-width="1" opacity="0.996078431372549" d="M 82.5 39 L 83 40.5 L 82 40.5 L 82.5 39 Z " /><path fill="rgb(131,127,90)" stroke="rgb(131,127,90)" stroke-width="1" opacity="0.996078431372549" d="M 97.5 39 L 98 40.5 L 97 40.5 L 97.5 39 Z " /><path fill="rgb(131,127,90)" stroke="rgb(131,127,90)" stroke-width="1" opacity="0.996078431372549" d="M 28.5 40 L 28.5 41 L 28.5 40 Z " /><path fill="rgb(131,127,90)" stroke="rgb(131,127,90)" stroke-width="1" opacity="0.996078431372549" d="M 36.5 40 L 36.5 41 L 36.5 40 Z " /><path fill="rgb(131,127,90)" stroke="rgb(131,127,90)" stroke-width="1" opacity="0.996078431372549" d="M 84.5 40 L 84.5 41 L 84.5 40 Z " /><path fill="rgb(131,127,90)" stroke="rgb(131,127,90)" stroke-width="1" opacity="0.996078431372549" d="M 33.5 41 L 33.5 42 L 33.5 41 Z " /><path fill="rgb(131,127,90)" stroke="rgb(131,127,90)" stroke-width="1" opacity="0.996078431372549" d="M 39.5 41 L 39.5 42 L 39.5 41 Z " /><path fill="rgb(131,127,90)" stroke="rgb(131,127,90)" stroke-width="1" opacity="0.996078431372549" d="M 45.5 41 Q 48.5 42.5 45.5 44 L 45.5 41 Z " /><path fill="rgb(131,127,90)" stroke="rgb(131,127,90)" stroke-width="1" opacity="0.996078431372549" d="M 50.5 41 L 51 43.5 L 50 43.5 L 50.5 41 Z " /><path fill="rgb(131,127,90)" stroke="rgb(131,127,90)" stroke-width="1" opacity="0.996078431372549" d="M 52.5 41 L 53 43.5 L 52 43.5 L 52.5 41 Z " /><path fill="rgb(131,127,90)" stroke="rgb(131,127,90)" stroke-width="1" opacity="0.996078431372549" d="M 59.5 41 L 59.5 42 L 59.5 41 Z " /><path fill="rgb(131,127,90)" stroke="rgb(131,127,90)" stroke-width="1" opacity="0.996078431372549" d="M 62.5 41 L 63.5 43 L 62.5 41 Z " /><path fill="rgb(131,127,90)" stroke="rgb(131,127,90)" stroke-width="1" opacity="0.996078431372549" d="M 80.5 41 L 80.5 42 L 80.5 41 Z " /><path fill="rgb(131,127,90)" stroke="rgb(131,127,90)" stroke-width="1" opacity="0.996078431372549" d="M 88.5 41 L 88.5 42 L 88.5 41 Z " /><path fill="rgb(131,127,90)" stroke="rgb(131,127,90)" stroke-width="1" opacity="0.996078431372549" d="M 24.5 42 L 25 43.5 L 24 43.5 L 24.5 42 Z " /><path fill="rgb(131,127,90)" stroke="rgb(131,127,90)" stroke-width="1" opacity="0.996078431372549" d="M 28.5 42 L 28.5 43 L 28.5 42 Z " /><path fill="rgb(131,127,90)" stroke="rgb(131,127,90)" stroke-width="1" opacity="0.996078431372549" d="M 37.5 42 L 38 43.5 L 37 43.5 L 37.5 42 Z " /><path fill="rgb(131,127,90)" stroke="rgb(131,127,90)" stroke-width="1" opacity="0.996078431372549" d="M 71.5 42 L 72 43.5 L 71 43.5 L 71.5 42 Z " /><path fill="rgb(131,127,90)" stroke="rgb(131,127,90)" stroke-width="1" opacity="0.996078431372549" d="M 75.5 42 L 79 42.5 L 75.5 43 L 75.5 42 Z " /><path fill="rgb(131,127,90)" stroke="rgb(131,127,90)" stroke-width="1" opacity="0.996078431372549" d="M 83.5 42 L 84.5 44 L 83.5 42 Z " /><path fill="rgb(131,127,90)" stroke="rgb(131,127,90)" stroke-width="1" opacity="0.996078431372549" d="M 41.5 43 L 41.5 44 L 41.5 43 Z " /><path fill="rgb(131,127,90)" stroke="rgb(131,127,90)" stroke-width="1" opacity="0.996078431372549" d="M 88.5 43 L 88.5 44 L 88.5 43 Z " /><path fill="rgb(131,127,90)" stroke="rgb(131,127,90)" stroke-width="1" opacity="0.996078431372549" d="M 112.5 53 L 114.5 56 L 112.5 53 Z " /><path fill="rgb(131,127,90)" stroke="rgb(131,127,90)" stroke-width="1" opacity="0.996078431372549" d="M 200.5 55 L 200.5 56 L 200.5 55 Z " /><path fill="rgb(131,127,90)" stroke="rgb(131,127,90)" stroke-width="1" opacity="0.996078431372549" d="M 118.5 56 L 198 56.5 L 118.5 57 L 118.5 56 Z " /><path fill="rgb(61,62,62)" stroke="rgb(61,62,62)" stroke-width="1" opacity="0.35294117647058826" d="M 0.5 29 L 110 29.5 L 0.5 30 L 0.5 29 Z " /><path fill="rgb(61,62,62)" stroke="rgb(61,62,62)" stroke-width="1" opacity="0.35294117647058826" d="M 205.5 29 L 215 29 L 215 51 L 205 50.5 L 214 50 L 214 30 L 205.5 30 L 205.5 29 Z " /><path fill="rgb(61,62,62)" stroke="rgb(61,62,62)" stroke-width="1" opacity="0.35294117647058826" d="M 1.5 31 L 14 50 L 110 50.5 L 14.5 51 L 2 33.5 L 1.5 31 Z " /></svg>